<svg xmlns="http://www.w3.org/2000/svg" width="49" height="48" viewBox="0 0 49 48" fill="none"><g filter="url(#filter0_d_2_246)"><path d="M13.2976 16.542H19.6876C19.9244 16.5419 20.1578 16.4857 20.3688 16.378C20.5797 16.2703 20.7621 16.1142 20.9011 15.9225L25.0711 10.17" stroke="#D2C2D4" stroke-width="1.4"></path><path d="M13.2976 16.542H19.6876C19.9244 16.5419 20.1578 16.4857 20.3688 16.378C20.5797 16.2703 20.7621 16.1142 20.9011 15.9225L25.0711 10.17" stroke="url(#paint0_radial_2_246)" stroke-width="1.4"></path></g><path d="M13.2976 16.542H19.6876C19.9244 16.5419 20.1578 16.4857 20.3688 16.378C20.5797 16.2703 20.7621 16.1142 20.9011 15.9225L25.0711 10.17" stroke="url(#paint1_radial_2_246)" stroke-width="1.4"></path><g filter="url(#filter1_d_2_246)"><path d="M36.5279 16.542H30.1379C29.9009 16.5421 29.6671 16.486 29.456 16.3783C29.2448 16.2706 29.0621 16.1144 28.9229 15.9225L24.7529 10.17" stroke="#D2C2D4" stroke-width="1.4"></path><path d="M36.5279 16.542H30.1379C29.9009 16.5421 29.6671 16.486 29.456 16.3783C29.2448 16.2706 29.0621 16.1144 28.9229 15.9225L24.7529 10.17" stroke="url(#paint2_radial_2_246)" stroke-width="1.4"></path></g><path d="M12.9495 18.2955V31.4175" stroke="url(#paint3_linear_2_246)"></path><path d="M21.1021 30.7065L13.2976 18.2955" stroke="url(#paint4_linear_2_246)"></path><path d="M21.1021 30.7065L13.2976 18.2955" stroke="url(#paint5_linear_2_246)"></path><path d="M36.834 18.2955V31.4175" stroke="url(#paint6_linear_2_246)"></path><path d="M28.7671 30.7065L36.5731 18.2955" stroke="url(#paint7_linear_2_246)"></path><g filter="url(#filter2_f_2_246)"><path d="M28.7671 30.7065L36.5731 18.2955" stroke="#F8DDE7" stroke-width="0.25"></path></g><path d="M44.9881 30.7065L37.1821 18.2955" stroke="url(#paint8_linear_2_246)"></path><path d="M44.9881 30.7065L37.1821 18.2955" stroke="url(#paint9_linear_2_246)"></path><path d="M36.8775 18.9465C38.2254 18.9465 39.318 17.8538 39.318 16.506C39.318 15.1581 38.2254 14.0655 36.8775 14.0655C35.5297 14.0655 34.437 15.1581 34.437 16.506C34.437 17.8538 35.5297 18.9465 36.8775 18.9465Z" fill="url(#paint10_radial_2_246)"></path><path d="M36.8775 18.9465C38.2254 18.9465 39.318 17.8538 39.318 16.506C39.318 15.1581 38.2254 14.0655 36.8775 14.0655C35.5297 14.0655 34.437 15.1581 34.437 16.506C34.437 17.8538 35.5297 18.9465 36.8775 18.9465Z" fill="url(#paint11_radial_2_246)"></path><path d="M36.8775 18.9465C38.2254 18.9465 39.318 17.8538 39.318 16.506C39.318 15.1581 38.2254 14.0655 36.8775 14.0655C35.5297 14.0655 34.437 15.1581 34.437 16.506C34.437 17.8538 35.5297 18.9465 36.8775 18.9465Z" fill="url(#paint12_radial_2_246)"></path><path d="M28.7925 29.997C28.1715 29.997 27.7065 30.573 27.915 31.1595C28.5727 33.0105 29.7874 34.6124 31.3922 35.7453C32.997 36.8781 34.9132 37.4863 36.8775 37.4863C38.8419 37.4863 40.7581 36.8781 42.3628 35.7453C43.9676 34.6124 45.1823 33.0105 45.84 31.1595C46.0485 30.5745 45.5835 29.997 44.9625 29.997H28.7925Z" fill="url(#paint13_radial_2_246)"></path><path d="M28.7925 29.997C28.1715 29.997 27.7065 30.573 27.915 31.1595C28.5727 33.0105 29.7874 34.6124 31.3922 35.7453C32.997 36.8781 34.9132 37.4863 36.8775 37.4863C38.8419 37.4863 40.7581 36.8781 42.3628 35.7453C43.9676 34.6124 45.1823 33.0105 45.84 31.1595C46.0485 30.5745 45.5835 29.997 44.9625 29.997H28.7925Z" fill="url(#paint14_linear_2_246)"></path><path d="M28.7925 29.997C28.1715 29.997 27.7065 30.573 27.915 31.1595C28.5727 33.0105 29.7874 34.6124 31.3922 35.7453C32.997 36.8781 34.9132 37.4863 36.8775 37.4863C38.8419 37.4863 40.7581 36.8781 42.3628 35.7453C43.9676 34.6124 45.1823 33.0105 45.84 31.1595C46.0485 30.5745 45.5835 29.997 44.9625 29.997H28.7925Z" fill="url(#paint15_radial_2_246)"></path><path d="M28.7925 29.997C28.1715 29.997 27.7065 30.573 27.915 31.1595C28.5727 33.0105 29.7874 34.6124 31.3922 35.7453C32.997 36.8781 34.9132 37.4863 36.8775 37.4863C38.8419 37.4863 40.7581 36.8781 42.3628 35.7453C43.9676 34.6124 45.1823 33.0105 45.84 31.1595C46.0485 30.5745 45.5835 29.997 44.9625 29.997H28.7925Z" fill="url(#paint16_radial_2_246)"></path><path d="M28.7925 29.997C28.1715 29.997 27.7065 30.573 27.915 31.1595C28.5727 33.0105 29.7874 34.6124 31.3922 35.7453C32.997 36.8781 34.9132 37.4863 36.8775 37.4863C38.8419 37.4863 40.7581 36.8781 42.3628 35.7453C43.9676 34.6124 45.1823 33.0105 45.84 31.1595C46.0485 30.5745 45.5835 29.997 44.9625 29.997H28.7925Z" fill="url(#paint17_radial_2_246)"></path><path d="M28.7925 29.997C28.1715 29.997 27.7065 30.573 27.915 31.1595C28.5727 33.0105 29.7874 34.6124 31.3922 35.7453C32.997 36.8781 34.9132 37.4863 36.8775 37.4863C38.8419 37.4863 40.7581 36.8781 42.3628 35.7453C43.9676 34.6124 45.1823 33.0105 45.84 31.1595C46.0485 30.5745 45.5835 29.997 44.9625 29.997H28.7925Z" fill="url(#paint18_radial_2_246)"></path><path d="M4.88257 30.7065L12.6886 18.2955" stroke="url(#paint19_linear_2_246)"></path><g filter="url(#filter3_f_2_246)"><path d="M5.11792 30.7065L12.9224 18.2955" stroke="#F8DDE7" stroke-width="0.25"></path></g><path d="M4.83903 29.997C4.21653 29.997 3.75303 30.573 3.96003 31.1595C4.61775 33.0105 5.83243 34.6124 7.43721 35.7453C9.042 36.8781 10.9582 37.4863 12.9225 37.4863C14.8869 37.4863 16.8031 36.8781 18.4079 35.7453C20.0126 34.6124 21.2273 33.0105 21.885 31.1595C22.0935 30.5745 21.63 29.997 21.0075 29.997H4.83753H4.83903Z" fill="url(#paint20_radial_2_246)"></path><path d="M4.83903 29.997C4.21653 29.997 3.75303 30.573 3.96003 31.1595C4.61775 33.0105 5.83243 34.6124 7.43721 35.7453C9.042 36.8781 10.9582 37.4863 12.9225 37.4863C14.8869 37.4863 16.8031 36.8781 18.4079 35.7453C20.0126 34.6124 21.2273 33.0105 21.885 31.1595C22.0935 30.5745 21.63 29.997 21.0075 29.997H4.83753H4.83903Z" fill="url(#paint21_linear_2_246)"></path><path d="M4.83903 29.997C4.21653 29.997 3.75303 30.573 3.96003 31.1595C4.61775 33.0105 5.83243 34.6124 7.43721 35.7453C9.042 36.8781 10.9582 37.4863 12.9225 37.4863C14.8869 37.4863 16.8031 36.8781 18.4079 35.7453C20.0126 34.6124 21.2273 33.0105 21.885 31.1595C22.0935 30.5745 21.63 29.997 21.0075 29.997H4.83753H4.83903Z" fill="url(#paint22_radial_2_246)"></path><path d="M4.83903 29.997C4.21653 29.997 3.75303 30.573 3.96003 31.1595C4.61775 33.0105 5.83243 34.6124 7.43721 35.7453C9.042 36.8781 10.9582 37.4863 12.9225 37.4863C14.8869 37.4863 16.8031 36.8781 18.4079 35.7453C20.0126 34.6124 21.2273 33.0105 21.885 31.1595C22.0935 30.5745 21.63 29.997 21.0075 29.997H4.83753H4.83903Z" fill="url(#paint23_radial_2_246)"></path><path d="M4.83903 29.997C4.21653 29.997 3.75303 30.573 3.96003 31.1595C4.61775 33.0105 5.83243 34.6124 7.43721 35.7453C9.042 36.8781 10.9582 37.4863 12.9225 37.4863C14.8869 37.4863 16.8031 36.8781 18.4079 35.7453C20.0126 34.6124 21.2273 33.0105 21.885 31.1595C22.0935 30.5745 21.63 29.997 21.0075 29.997H4.83753H4.83903Z" fill="url(#paint24_radial_2_246)"></path><path d="M4.83903 29.997C4.21653 29.997 3.75303 30.573 3.96003 31.1595C4.61775 33.0105 5.83243 34.6124 7.43721 35.7453C9.042 36.8781 10.9582 37.4863 12.9225 37.4863C14.8869 37.4863 16.8031 36.8781 18.4079 35.7453C20.0126 34.6124 21.2273 33.0105 21.885 31.1595C22.0935 30.5745 21.63 29.997 21.0075 29.997H4.83753H4.83903Z" fill="url(#paint25_radial_2_246)"></path><path d="M12.9224 18.9465C14.2703 18.9465 15.3629 17.8538 15.3629 16.506C15.3629 15.1581 14.2703 14.0655 12.9224 14.0655C11.5746 14.0655 10.4819 15.1581 10.4819 16.506C10.4819 17.8538 11.5746 18.9465 12.9224 18.9465Z" fill="url(#paint26_radial_2_246)"></path><path d="M12.9224 18.9465C14.2703 18.9465 15.3629 17.8538 15.3629 16.506C15.3629 15.1581 14.2703 14.0655 12.9224 14.0655C11.5746 14.0655 10.4819 15.1581 10.4819 16.506C10.4819 17.8538 11.5746 18.9465 12.9224 18.9465Z" fill="url(#paint27_radial_2_246)"></path><path d="M12.9224 18.9465C14.2703 18.9465 15.3629 17.8538 15.3629 16.506C15.3629 15.1581 14.2703 14.0655 12.9224 14.0655C11.5746 14.0655 10.4819 15.1581 10.4819 16.506C10.4819 17.8538 11.5746 18.9465 12.9224 18.9465Z" fill="url(#paint28_radial_2_246)"></path><g filter="url(#filter4_f_2_246)"><path d="M25.584 10.4295L29.733 16.149" stroke="url(#paint29_linear_2_246)" stroke-width="0.4" stroke-linecap="round"></path></g><path d="M24.9001 6.564V39.99" stroke="url(#paint30_linear_2_246)" stroke-width="1.5"></path><path d="M24.9001 6.564V39.99" stroke="url(#paint31_radial_2_246)" stroke-width="1.5"></path><path d="M24.9001 6.564V39.99" stroke="url(#paint32_linear_2_246)" stroke-width="1.5"></path><path d="M24.9001 6.564V39.99" stroke="url(#paint33_linear_2_246)" stroke-width="1.5"></path><path d="M24.9001 6.564V39.99" stroke="url(#paint34_radial_2_246)" stroke-width="1.5"></path><path d="M35.6849 44.9445C36.6449 44.9445 37.1354 43.839 36.4124 43.2045C33.2339 40.3995 29.1392 38.8539 24.8999 38.859C20.6606 38.8528 16.5654 40.3973 13.3859 43.2015C12.6659 43.8375 13.1534 44.9415 14.1149 44.9415H35.6849V44.9445Z" fill="url(#paint35_linear_2_246)"></path><path d="M35.6849 44.9445C36.6449 44.9445 37.1354 43.839 36.4124 43.2045C33.2339 40.3995 29.1392 38.8539 24.8999 38.859C20.6606 38.8528 16.5654 40.3973 13.3859 43.2015C12.6659 43.8375 13.1534 44.9415 14.1149 44.9415H35.6849V44.9445Z" fill="url(#paint36_radial_2_246)"></path><path d="M35.6849 44.9445C36.6449 44.9445 37.1354 43.839 36.4124 43.2045C33.2339 40.3995 29.1392 38.8539 24.8999 38.859C20.6606 38.8528 16.5654 40.3973 13.3859 43.2015C12.6659 43.8375 13.1534 44.9415 14.1149 44.9415H35.6849V44.9445Z" fill="url(#paint37_linear_2_246)"></path><path d="M35.6849 44.9445C36.6449 44.9445 37.1354 43.839 36.4124 43.2045C33.2339 40.3995 29.1392 38.8539 24.8999 38.859C20.6606 38.8528 16.5654 40.3973 13.3859 43.2015C12.6659 43.8375 13.1534 44.9415 14.1149 44.9415H35.6849V44.9445Z" fill="url(#paint38_radial_2_246)"></path><path d="M35.6849 44.9445C36.6449 44.9445 37.1354 43.839 36.4124 43.2045C33.2339 40.3995 29.1392 38.8539 24.8999 38.859C20.6606 38.8528 16.5654 40.3973 13.3859 43.2015C12.6659 43.8375 13.1534 44.9415 14.1149 44.9415H35.6849V44.9445Z" fill="url(#paint39_radial_2_246)"></path><g filter="url(#filter5_f_2_246)"><path d="M25.4895 7.35901V33.0465" stroke="url(#paint40_linear_2_246)" stroke-width="0.4"></path></g><path d="M24.9 7.9395C26.2478 7.9395 27.3405 6.84685 27.3405 5.499C27.3405 4.15115 26.2478 3.0585 24.9 3.0585C23.5521 3.0585 22.4595 4.15115 22.4595 5.499C22.4595 6.84685 23.5521 7.9395 24.9 7.9395Z" fill="url(#paint41_radial_2_246)"></path><path d="M24.9 7.9395C26.2478 7.9395 27.3405 6.84685 27.3405 5.499C27.3405 4.15115 26.2478 3.0585 24.9 3.0585C23.5521 3.0585 22.4595 4.15115 22.4595 5.499C22.4595 6.84685 23.5521 7.9395 24.9 7.9395Z" fill="url(#paint42_radial_2_246)"></path><path d="M24.9 7.9395C26.2478 7.9395 27.3405 6.84685 27.3405 5.499C27.3405 4.15115 26.2478 3.0585 24.9 3.0585C23.5521 3.0585 22.4595 4.15115 22.4595 5.499C22.4595 6.84685 23.5521 7.9395 24.9 7.9395Z" fill="url(#paint43_radial_2_246)"></path><defs><filter id="filter0_d_2_246" x="11.7976" y="8.25919" width="14.3403" height="9.48282" filterUnits="userSpaceOnUse" color-interpolation-filters="sRGB"><feGaussianBlur stdDeviation="0.5"></feGaussianBlur></filter><filter id="filter1_d_2_246" x="23.6863" y="8.25919" width="14.3416" height="9.48282" filterUnits="userSpaceOnUse" color-interpolation-filters="sRGB"><feGaussianBlur stdDeviation="0.5"></feGaussianBlur></filter><filter id="filter2_f_2_246" x="28.2614" y="17.8289" width="8.81758" height="13.3441" filterUnits="userSpaceOnUse" color-interpolation-filters="sRGB"><feGaussianBlur stdDeviation="0.2"></feGaussianBlur></filter><filter id="filter3_f_2_246" x="4.61221" y="17.829" width="8.81611" height="13.3441" filterUnits="userSpaceOnUse" color-interpolation-filters="sRGB"><feGaussianBlur stdDeviation="0.2"></feGaussianBlur></filter><filter id="filter4_f_2_246" x="24.984" y="9.82949" width="5.34907" height="6.91954" filterUnits="userSpaceOnUse" color-interpolation-filters="sRGB"><feGaussianBlur stdDeviation="0.2"></feGaussianBlur></filter><filter id="filter5_f_2_246" x="24.8896" y="6.95901" width="1.1999" height="26.4875" filterUnits="userSpaceOnUse" color-interpolation-filters="sRGB"><feGaussianBlur stdDeviation="0.2"></feGaussianBlur></filter><radialGradient id="paint0_radial_2_246" cx="0" cy="0" r="1" gradientUnits="userSpaceOnUse" gradientTransform="translate(14.7721 16.542) scale(2.10938 3.70735)"><stop offset="0.289" stop-color="#BDAAB9"></stop><stop offset="1" stop-color="#BDAAB9" stop-opacity="0"></stop></radialGradient><radialGradient id="paint1_radial_2_246" cx="0" cy="0" r="1" gradientUnits="userSpaceOnUse" gradientTransform="translate(16.6306 17.907) rotate(-38.8298) scale(9.86827 7.64128)"><stop offset="0.726" stop-color="#99839C" stop-opacity="0"></stop><stop offset="0.988" stop-color="#99839C"></stop></radialGradient><radialGradient id="paint2_radial_2_246" cx="0" cy="0" r="1" gradientUnits="userSpaceOnUse" gradientTransform="translate(35.0519 16.542) rotate(180) scale(2.10938 3.70735)"><stop offset="0.289" stop-color="#BDAAB9"></stop><stop offset="1" stop-color="#BDAAB9" stop-opacity="0"></stop></radialGradient><linearGradient id="paint3_linear_2_246" x1="nan" y1="nan" x2="nan" y2="nan" gradientUnits="userSpaceOnUse"><stop offset="0.188" stop-color="#BBA1B3"></stop><stop offset="1" stop-color="#D7B7C8"></stop></linearGradient><linearGradient id="paint4_linear_2_246" x1="16.6546" y1="24.501" x2="17.7556" y2="23.7195" gradientUnits="userSpaceOnUse"><stop offset="0.175" stop-color="#D0B6C3"></stop><stop offset="1" stop-color="#E6D2E4"></stop></linearGradient><linearGradient id="paint5_linear_2_246" x1="16.3966" y1="24.5925" x2="16.6951" y2="24.399" gradientUnits="userSpaceOnUse"><stop stop-color="#C2A6B1"></stop><stop offset="1" stop-color="#C2A6B1" stop-opacity="0"></stop></linearGradient><linearGradient id="paint6_linear_2_246" x1="nan" y1="nan" x2="nan" y2="nan" gradientUnits="userSpaceOnUse"><stop offset="0.188" stop-color="#BBA1B3"></stop><stop offset="1" stop-color="#D7B7C8"></stop></linearGradient><linearGradient id="paint7_linear_2_246" x1="31.6096" y1="24.501" x2="33.0631" y2="25.5465" gradientUnits="userSpaceOnUse"><stop stop-color="#C1AFC0"></stop><stop offset="1" stop-color="#F6D6DE"></stop></linearGradient><linearGradient id="paint8_linear_2_246" x1="40.5391" y1="24.501" x2="41.6401" y2="23.7195" gradientUnits="userSpaceOnUse"><stop offset="0.175" stop-color="#D0B6C3"></stop><stop offset="1" stop-color="#E6D2E4"></stop></linearGradient><linearGradient id="paint9_linear_2_246" x1="40.2811" y1="24.5925" x2="40.5796" y2="24.399" gradientUnits="userSpaceOnUse"><stop stop-color="#C2A6B1"></stop><stop offset="1" stop-color="#C2A6B1" stop-opacity="0"></stop></linearGradient><radialGradient id="paint10_radial_2_246" cx="0" cy="0" r="1" gradientUnits="userSpaceOnUse" gradientTransform="translate(38.2517 15.2833) rotate(110.554) scale(3.91336 4.07368)"><stop offset="0.319" stop-color="#FFC539"></stop><stop offset="1" stop-color="#F6973E"></stop></radialGradient><radialGradient id="paint11_radial_2_246" cx="0" cy="0" r="1" gradientUnits="userSpaceOnUse" gradientTransform="translate(39.3179 15.1673) rotate(134.483) scale(2.67954 2.89095)"><stop stop-color="#FFF361"></stop><stop offset="1" stop-color="#FFF361" stop-opacity="0"></stop></radialGradient><radialGradient id="paint12_radial_2_246" cx="0" cy="0" r="1" gradientUnits="userSpaceOnUse" gradientTransform="translate(36.8775 19.251) rotate(-90) scale(2.05657 1.77946)"><stop stop-color="#E98856"></stop><stop offset="1" stop-color="#E98856" stop-opacity="0"></stop></radialGradient><radialGradient id="paint13_radial_2_246" cx="0" cy="0" r="1" gradientUnits="userSpaceOnUse" gradientTransform="translate(36.8775 30.282) rotate(90) scale(7.20401 13.4013)"><stop offset="0.482" stop-color="#FFB85E"></stop><stop offset="1" stop-color="#FF9D5B"></stop></radialGradient><linearGradient id="paint14_linear_2_246" x1="36.8775" y1="29.997" x2="36.8775" y2="31.734" gradientUnits="userSpaceOnUse"><stop stop-color="#FFCF4D"></stop><stop offset="1" stop-color="#FFCF4D" stop-opacity="0"></stop></linearGradient><radialGradient id="paint15_radial_2_246" cx="0" cy="0" r="1" gradientUnits="userSpaceOnUse" gradientTransform="translate(43.914 29.157) rotate(126.87) scale(8.20313 5.44688)"><stop stop-color="#FFC635"></stop><stop offset="1" stop-color="#FFC635" stop-opacity="0"></stop></radialGradient><radialGradient id="paint16_radial_2_246" cx="0" cy="0" r="1" gradientUnits="userSpaceOnUse" gradientTransform="translate(36.8775 30.75) rotate(90) scale(6.73526 12.9795)"><stop offset="0.592" stop-color="#FD9860" stop-opacity="0"></stop><stop offset="1" stop-color="#F18E9D"></stop></radialGradient><radialGradient id="paint17_radial_2_246" cx="0" cy="0" r="1" gradientUnits="userSpaceOnUse" gradientTransform="translate(34.9133 29.2967) rotate(52.677) scale(10.6691 14.8807)"><stop offset="0.827" stop-color="#FFB651" stop-opacity="0"></stop><stop offset="1" stop-color="#E29471"></stop></radialGradient><radialGradient id="paint18_radial_2_246" cx="0" cy="0" r="1" gradientUnits="userSpaceOnUse" gradientTransform="translate(42.882 30.75) rotate(90) scale(1.6875 12.4875)"><stop stop-color="#FFF263"></stop><stop offset="1" stop-color="#FFD049" stop-opacity="0"></stop></radialGradient><linearGradient id="paint19_linear_2_246" x1="7.72507" y1="24.501" x2="9.17707" y2="25.5465" gradientUnits="userSpaceOnUse"><stop stop-color="#C1AFC0"></stop><stop offset="1" stop-color="#F6D6DE"></stop></linearGradient><radialGradient id="paint20_radial_2_246" cx="0" cy="0" r="1" gradientUnits="userSpaceOnUse" gradientTransform="translate(12.9225 30.282) rotate(90) scale(7.20401 13.4013)"><stop offset="0.482" stop-color="#FFB85E"></stop><stop offset="1" stop-color="#FF9D5B"></stop></radialGradient><linearGradient id="paint21_linear_2_246" x1="12.9225" y1="29.997" x2="12.9225" y2="31.734" gradientUnits="userSpaceOnUse"><stop stop-color="#FFCF4D"></stop><stop offset="1" stop-color="#FFCF4D" stop-opacity="0"></stop></linearGradient><radialGradient id="paint22_radial_2_246" cx="0" cy="0" r="1" gradientUnits="userSpaceOnUse" gradientTransform="translate(19.959 29.157) rotate(126.87) scale(8.20313 5.44688)"><stop stop-color="#FFC635"></stop><stop offset="1" stop-color="#FFC635" stop-opacity="0"></stop></radialGradient><radialGradient id="paint23_radial_2_246" cx="0" cy="0" r="1" gradientUnits="userSpaceOnUse" gradientTransform="translate(18.927 30.75) rotate(90) scale(1.6875 12.4875)"><stop stop-color="#FFF263"></stop><stop offset="1" stop-color="#FFD049" stop-opacity="0"></stop></radialGradient><radialGradient id="paint24_radial_2_246" cx="0" cy="0" r="1" gradientUnits="userSpaceOnUse" gradientTransform="translate(12.9225 30.75) rotate(90) scale(6.73526 12.9795)"><stop offset="0.592" stop-color="#FD9860" stop-opacity="0"></stop><stop offset="1" stop-color="#F18E9D"></stop></radialGradient><radialGradient id="paint25_radial_2_246" cx="0" cy="0" r="1" gradientUnits="userSpaceOnUse" gradientTransform="translate(10.9584 29.2968) rotate(52.677) scale(10.6691 14.8807)"><stop offset="0.827" stop-color="#FFB651" stop-opacity="0"></stop><stop offset="1" stop-color="#E29471"></stop></radialGradient><radialGradient id="paint26_radial_2_246" cx="0" cy="0" r="1" gradientUnits="userSpaceOnUse" gradientTransform="translate(14.2964 15.2829) rotate(110.554) scale(3.91336 4.07369)"><stop offset="0.319" stop-color="#FFC539"></stop><stop offset="1" stop-color="#F6973E"></stop></radialGradient><radialGradient id="paint27_radial_2_246" cx="0" cy="0" r="1" gradientUnits="userSpaceOnUse" gradientTransform="translate(15.3625 15.1668) rotate(134.483) scale(2.67954 2.89095)"><stop stop-color="#FFF361"></stop><stop offset="1" stop-color="#FFF361" stop-opacity="0"></stop></radialGradient><radialGradient id="paint28_radial_2_246" cx="0" cy="0" r="1" gradientUnits="userSpaceOnUse" gradientTransform="translate(12.9224 19.251) rotate(-90) scale(2.05657 1.77947)"><stop stop-color="#E98856"></stop><stop offset="1" stop-color="#E98856" stop-opacity="0"></stop></radialGradient><linearGradient id="paint29_linear_2_246" x1="25.443" y1="11.6355" x2="30.0315" y2="17.9715" gradientUnits="userSpaceOnUse"><stop stop-color="#FDEBFF"></stop><stop offset="1" stop-color="#FDEBFF" stop-opacity="0"></stop></linearGradient><linearGradient id="paint30_linear_2_246" x1="nan" y1="nan" x2="nan" y2="nan" gradientUnits="userSpaceOnUse"><stop stop-color="#C3AEC2"></stop><stop offset="1" stop-color="#E7D3E6"></stop></linearGradient><radialGradient id="paint31_radial_2_246" cx="0" cy="0" r="1" gradientUnits="userSpaceOnUse" gradientTransform="translate(nan nan) rotate(nan) scale(nan nan)"><stop stop-color="#B59CAD"></stop><stop offset="1" stop-color="#B59CAD" stop-opacity="0"></stop></radialGradient><linearGradient id="paint32_linear_2_246" x1="nan" y1="nan" x2="nan" y2="nan" gradientUnits="userSpaceOnUse"><stop stop-color="#BC9EA3"></stop><stop offset="1" stop-color="#BC9EA3" stop-opacity="0"></stop></linearGradient><linearGradient id="paint33_linear_2_246" x1="nan" y1="nan" x2="nan" y2="nan" gradientUnits="userSpaceOnUse"><stop stop-color="#A38B8F"></stop><stop offset="1" stop-color="#CBB6CA" stop-opacity="0"></stop></linearGradient><radialGradient id="paint34_radial_2_246" cx="0" cy="0" r="1" gradientUnits="userSpaceOnUse" gradientTransform="translate(nan nan) rotate(nan) scale(nan nan)"><stop offset="0.922" stop-color="#92767E" stop-opacity="0"></stop><stop offset="1" stop-color="#92767E"></stop></radialGradient><linearGradient id="paint35_linear_2_246" x1="24.8999" y1="38.8605" x2="24.8999" y2="44.5785" gradientUnits="userSpaceOnUse"><stop offset="0.254" stop-color="#F9C63C"></stop><stop offset="0.754" stop-color="#FFCE37"></stop></linearGradient><radialGradient id="paint36_radial_2_246" cx="0" cy="0" r="1" gradientUnits="userSpaceOnUse" gradientTransform="translate(36.0374 44.625) rotate(180) scale(11.1371 4.03125)"><stop stop-color="#FFFF64"></stop><stop offset="1" stop-color="#FFFF64" stop-opacity="0"></stop></radialGradient><linearGradient id="paint37_linear_2_246" x1="27.4124" y1="44.9445" x2="27.4124" y2="43.8285" gradientUnits="userSpaceOnUse"><stop stop-color="#FA8694"></stop><stop offset="1" stop-color="#FFA166" stop-opacity="0"></stop></linearGradient><radialGradient id="paint38_radial_2_246" cx="0" cy="0" r="1" gradientUnits="userSpaceOnUse" gradientTransform="translate(23.9429 46.4535) rotate(-107.43) scale(8.45051 24.4357)"><stop offset="0.57" stop-color="#EB9E40" stop-opacity="0"></stop><stop offset="1" stop-color="#EB9E40"></stop></radialGradient><radialGradient id="paint39_radial_2_246" cx="0" cy="0" r="1" gradientUnits="userSpaceOnUse" gradientTransform="translate(24.8999 44.0625) rotate(-89.9995) scale(5.625 19.2933)"><stop offset="0.685" stop-color="#DDB761" stop-opacity="0"></stop><stop offset="1" stop-color="#D29F5F"></stop></radialGradient><linearGradient id="paint40_linear_2_246" x1="nan" y1="nan" x2="nan" y2="nan" gradientUnits="userSpaceOnUse"><stop stop-color="#EDD9EE"></stop><stop offset="1" stop-color="#EDD9EE" stop-opacity="0"></stop></linearGradient><radialGradient id="paint41_radial_2_246" cx="0" cy="0" r="1" gradientUnits="userSpaceOnUse" gradientTransform="translate(26.2736 4.27638) rotate(110.554) scale(3.91337 4.07369)"><stop offset="0.319" stop-color="#FFC539"></stop><stop offset="1" stop-color="#F6973E"></stop></radialGradient><radialGradient id="paint42_radial_2_246" cx="0" cy="0" r="1" gradientUnits="userSpaceOnUse" gradientTransform="translate(27.341 4.15974) rotate(134.483) scale(2.67954 2.89095)"><stop stop-color="#FFF361"></stop><stop offset="1" stop-color="#FFF361" stop-opacity="0"></stop></radialGradient><radialGradient id="paint43_radial_2_246" cx="0" cy="0" r="1" gradientUnits="userSpaceOnUse" gradientTransform="translate(24.9 8.244) rotate(-90) scale(2.05658 1.77947)"><stop stop-color="#E98856"></stop><stop offset="1" stop-color="#E98856" stop-opacity="0"></stop></radialGradient></defs></svg>