<svg xmlns="http://www.w3.org/2000/svg" width="49" height="48" viewBox="0 0 49 48" fill="none"><g filter="url(#filter0_d_2_233)"><path d="M7.76794 13.815C7.76794 12.462 8.82694 11.385 10.0854 10.884C11.6004 10.281 13.2624 9.04799 14.2869 6.51149C14.8269 5.17199 16.0179 4.11749 17.4624 4.11749H29.1684C30.6429 4.11749 31.8444 5.22149 32.4429 6.56849C33.2995 8.49363 34.8111 10.0526 36.7089 10.968C37.9089 11.553 38.9289 12.675 38.9289 14.0085V18.8385C38.9289 29.2605 35.6694 35.5515 27.0744 42.7725C26.2369 43.4791 25.1844 43.8806 24.0891 43.9114C22.9937 43.9422 21.9203 43.6004 21.0444 42.942C13.1469 36.981 7.76794 29.9205 7.76794 18.84V13.815Z" fill="#378AED"></path><path d="M7.76794 13.815C7.76794 12.462 8.82694 11.385 10.0854 10.884C11.6004 10.281 13.2624 9.04799 14.2869 6.51149C14.8269 5.17199 16.0179 4.11749 17.4624 4.11749H29.1684C30.6429 4.11749 31.8444 5.22149 32.4429 6.56849C33.2995 8.49363 34.8111 10.0526 36.7089 10.968C37.9089 11.553 38.9289 12.675 38.9289 14.0085V18.8385C38.9289 29.2605 35.6694 35.5515 27.0744 42.7725C26.2369 43.4791 25.1844 43.8806 24.0891 43.9114C22.9937 43.9422 21.9203 43.6004 21.0444 42.942C13.1469 36.981 7.76794 29.9205 7.76794 18.84V13.815Z" fill="url(#paint0_radial_2_233)"></path></g><path d="M23.968 43.914V4.11749H29.1685C30.643 4.11749 31.8445 5.22149 32.443 6.56849C33.2996 8.49363 34.8112 10.0526 36.709 10.968C37.909 11.553 38.929 12.675 38.929 14.0085V18.8385C38.929 29.2605 35.6695 35.5515 27.0745 42.7725C26.2044 43.5045 25.1051 43.9079 23.968 43.9125V43.914Z" fill="#3C88F0" fill-opacity="0.5"></path><g filter="url(#filter1_d_2_233)"><path d="M23.968 43.896V4.11749H29.77C31.285 4.11749 32.5225 5.22149 33.1375 6.56849C34.1725 8.84099 35.947 10.2225 37.5235 10.968C38.7565 11.553 39.808 12.675 39.808 14.0085V18.8385C39.808 29.2605 36.454 35.5515 27.619 42.7725C26.594 43.6066 25.2846 44.009 23.968 43.8945V43.896Z" fill="url(#paint1_radial_2_233)"></path><path d="M23.968 43.896V4.11749H29.77C31.285 4.11749 32.5225 5.22149 33.1375 6.56849C34.1725 8.84099 35.947 10.2225 37.5235 10.968C38.7565 11.553 39.808 12.675 39.808 14.0085V18.8385C39.808 29.2605 36.454 35.5515 27.619 42.7725C26.594 43.6066 25.2846 44.009 23.968 43.8945V43.896Z" fill="url(#paint2_radial_2_233)"></path></g><g filter="url(#filter2_ddd_2_233)"><path fill-rule="evenodd" clip-rule="evenodd" d="M17.4625 3.0675H30.4735C32.467 3.0675 33.9715 4.5075 34.6225 6.11851C35.5285 8.36251 36.9625 9.39901 38.2375 9.90751C39.7225 10.497 41.218 11.8695 41.218 13.8165V18.84C41.218 30.36 35.581 37.698 27.5245 43.779C26.5008 44.553 25.2513 44.9694 23.968 44.964C22.6846 44.9694 21.4351 44.553 20.4115 43.779C12.355 37.698 6.71497 30.3615 6.71497 18.84V13.815C6.71497 11.8695 8.21347 10.497 9.69547 9.90751C10.9735 9.39901 12.406 8.36251 13.312 6.11851C13.963 4.506 15.4675 3.0675 17.4595 3.0675H17.4625ZM23.968 42.8625C24.7946 42.8682 25.6001 42.6015 26.26 42.1035C33.9985 36.2625 39.118 29.4795 39.118 18.8385V13.818C39.118 13.0545 38.497 12.2715 37.462 11.8605C35.71 11.163 33.8185 9.73651 32.6755 6.90601C32.2435 5.83951 31.3705 5.16901 30.4735 5.16901H17.461C16.5655 5.16901 15.691 5.83951 15.2605 6.90601C14.1175 9.73651 12.226 11.163 10.474 11.8605C9.43897 12.2715 8.81797 13.0545 8.81797 13.818V18.8415C8.81797 29.481 13.9375 36.264 21.676 42.105C22.3555 42.6165 23.161 42.87 23.968 42.8655V42.8625Z" fill="url(#paint3_linear_2_233)"></path></g><path fill-rule="evenodd" clip-rule="evenodd" d="M17.4625 3.0675H30.4735C32.467 3.0675 33.9715 4.5075 34.6225 6.11851C35.5285 8.36251 36.9625 9.39901 38.2375 9.90751C39.7225 10.497 41.218 11.8695 41.218 13.8165V18.84C41.218 30.36 35.581 37.698 27.5245 43.779C26.5008 44.553 25.2513 44.9694 23.968 44.964C22.6846 44.9694 21.4351 44.553 20.4115 43.779C12.355 37.698 6.71497 30.3615 6.71497 18.84V13.815C6.71497 11.8695 8.21347 10.497 9.69547 9.90751C10.9735 9.39901 12.406 8.36251 13.312 6.11851C13.963 4.506 15.4675 3.0675 17.4595 3.0675H17.4625ZM23.968 42.8625C24.7946 42.8682 25.6001 42.6015 26.26 42.1035C33.9985 36.2625 39.118 29.4795 39.118 18.8385V13.818C39.118 13.0545 38.497 12.2715 37.462 11.8605C35.71 11.163 33.8185 9.73651 32.6755 6.90601C32.2435 5.83951 31.3705 5.16901 30.4735 5.16901H17.461C16.5655 5.16901 15.691 5.83951 15.2605 6.90601C14.1175 9.73651 12.226 11.163 10.474 11.8605C9.43897 12.2715 8.81797 13.0545 8.81797 13.818V18.8415C8.81797 29.481 13.9375 36.264 21.676 42.105C22.3555 42.6165 23.161 42.87 23.968 42.8655V42.8625Z" fill="url(#paint4_radial_2_233)"></path><path fill-rule="evenodd" clip-rule="evenodd" d="M17.4625 3.0675H30.4735C32.467 3.0675 33.9715 4.5075 34.6225 6.11851C35.5285 8.36251 36.9625 9.39901 38.2375 9.90751C39.7225 10.497 41.218 11.8695 41.218 13.8165V18.84C41.218 30.36 35.581 37.698 27.5245 43.779C26.5008 44.553 25.2513 44.9694 23.968 44.964C22.6846 44.9694 21.4351 44.553 20.4115 43.779C12.355 37.698 6.71497 30.3615 6.71497 18.84V13.815C6.71497 11.8695 8.21347 10.497 9.69547 9.90751C10.9735 9.39901 12.406 8.36251 13.312 6.11851C13.963 4.506 15.4675 3.0675 17.4595 3.0675H17.4625ZM23.968 42.8625C24.7946 42.8682 25.6001 42.6015 26.26 42.1035C33.9985 36.2625 39.118 29.4795 39.118 18.8385V13.818C39.118 13.0545 38.497 12.2715 37.462 11.8605C35.71 11.163 33.8185 9.73651 32.6755 6.90601C32.2435 5.83951 31.3705 5.16901 30.4735 5.16901H17.461C16.5655 5.16901 15.691 5.83951 15.2605 6.90601C14.1175 9.73651 12.226 11.163 10.474 11.8605C9.43897 12.2715 8.81797 13.0545 8.81797 13.818V18.8415C8.81797 29.481 13.9375 36.264 21.676 42.105C22.3555 42.6165 23.161 42.87 23.968 42.8655V42.8625Z" fill="url(#paint5_radial_2_233)"></path><defs><filter id="filter0_d_2_233" x="7.51794" y="3.85749" width="33.161" height="41.7958" filterUnits="userSpaceOnUse" color-interpolation-filters="sRGB"><feGaussianBlur stdDeviation="0.5"></feGaussianBlur></filter><filter id="filter1_d_2_233" x="22.818" y="4.11749" width="17.34" height="41.3461" filterUnits="userSpaceOnUse" color-interpolation-filters="sRGB"><feGaussianBlur stdDeviation="0.375"></feGaussianBlur></filter><filter id="filter2_ddd_2_233" x="6.16497" y="2.3175" width="35.8031" height="43.1465" filterUnits="userSpaceOnUse" color-interpolation-filters="sRGB"><feGaussianBlur stdDeviation="0.25"></feGaussianBlur><feGaussianBlur stdDeviation="0.25"></feGaussianBlur><feGaussianBlur stdDeviation="0.15"></feGaussianBlur></filter><radialGradient id="paint0_radial_2_233" cx="0" cy="0" r="1" gradientUnits="userSpaceOnUse" gradientTransform="translate(29.2209 25.176) rotate(139.976) scale(19.6339 27.4988)"><stop offset="0.792" stop-color="#3782E8" stop-opacity="0"></stop><stop offset="0.943" stop-color="#286ACA"></stop></radialGradient><radialGradient id="paint1_radial_2_233" cx="0" cy="0" r="1" gradientUnits="userSpaceOnUse" gradientTransform="translate(23.968 24.015) scale(15.1788 33.6389)"><stop stop-color="#52C9FF"></stop><stop offset="1" stop-color="#59CBFF"></stop></radialGradient><radialGradient id="paint2_radial_2_233" cx="0" cy="0" r="1" gradientUnits="userSpaceOnUse" gradientTransform="translate(25.5806 21.5459) rotate(12.048) scale(13.8127 23.759)"><stop offset="0.797" stop-color="#44AAFF" stop-opacity="0"></stop><stop offset="0.966" stop-color="#1B7CE2"></stop></radialGradient><linearGradient id="paint3_linear_2_233" x1="7.95547" y1="26.8185" x2="33.7195" y2="26.8185" gradientUnits="userSpaceOnUse"><stop stop-color="#B8B3BE"></stop><stop offset="1" stop-color="#BBB3C4"></stop></linearGradient><radialGradient id="paint4_radial_2_233" cx="0" cy="0" r="1" gradientUnits="userSpaceOnUse" gradientTransform="translate(13.3436 9.62302) rotate(-126.254) scale(1.26279 7.8559)"><stop offset="0.279" stop-color="#B8B1C0"></stop><stop offset="1" stop-color="#B8B1C0" stop-opacity="0"></stop></radialGradient><radialGradient id="paint5_radial_2_233" cx="0" cy="0" r="1" gradientUnits="userSpaceOnUse" gradientTransform="translate(16.333 7.4055) rotate(-126.69) scale(2.98125 3.67406)"><stop offset="0.36" stop-color="#B8B1C0"></stop><stop offset="1" stop-color="#B8B1C0" stop-opacity="0"></stop></radialGradient></defs></svg>